<svg width="96" height="96" viewBox="0 0 96 96" fill="none" xmlns="http://www.w3.org/2000/svg">
<g filter="url(#filter0_d_102_42)">
<path d="M48 90C71.196 90 90 71.196 90 48C90 24.804 71.196 6 48 6C24.804 6 6 24.804 6 48C6 71.196 24.804 90 48 90Z" fill="black"/>
</g>
<path d="M48 90C71.196 90 90 71.196 90 48C90 24.804 71.196 6 48 6C24.804 6 6 24.804 6 48C6 71.196 24.804 90 48 90Z" stroke="#BABABA" stroke-opacity="0.5" stroke-width="2"/>
<path d="M48 90C71.196 90 90 71.196 90 48C90 24.804 71.196 6 48 6C24.804 6 6 24.804 6 48C6 71.196 24.804 90 48 90Z" fill="url(#paint0_linear_102_42)"/>
<g filter="url(#filter1_d_102_42)">
<path d="M9 48.0255C9 65.2942 20.1638 79.8795 35.6663 85.0507C37.6163 85.3927 38.3475 84.222 38.3475 83.1982C38.3475 82.2705 38.2987 79.1977 38.2987 75.9292C28.5 77.733 25.965 73.5375 25.185 71.343C24.7463 70.221 22.845 66.7575 21.1875 65.8305C19.8225 65.0985 17.8725 63.294 21.1387 63.2452C24.21 63.1965 26.4038 66.0742 27.135 67.245C30.645 73.1475 36.2513 71.49 38.4938 70.4647C38.835 67.9282 39.8587 66.2197 40.98 65.2447C32.3025 64.2697 23.235 60.9037 23.235 45.9772C23.235 41.7322 24.7463 38.22 27.2325 35.4885C26.8425 34.5135 25.4775 30.513 27.6225 25.146C27.6225 25.146 30.8888 24.1222 38.3475 29.1465C41.4675 28.269 44.7825 27.8295 48.0975 27.8295C51.4125 27.8295 54.7275 28.269 57.8475 29.1465C65.3062 24.0735 68.5725 25.1467 68.5725 25.1467C70.7175 30.5122 69.3525 34.512 68.9625 35.4877C71.4487 38.2192 72.96 41.6827 72.96 45.9757C72.96 60.9517 63.8438 64.2682 55.1663 65.2447C56.58 66.4642 57.7988 68.8057 57.7988 72.4642C57.7988 77.6842 57.75 81.879 57.75 83.1967C57.75 84.2205 58.4812 85.4392 60.4312 85.0492C75.8362 79.8802 87 65.2462 87 48.0262C87 26.463 69.5475 9 48 9C26.4525 9 9 26.4637 9 48.0255Z" fill="url(#paint1_linear_102_42)"/>
</g>
<path d="M9 48.0255C9 65.2942 20.1638 79.8795 35.6663 85.0507C37.6163 85.3927 38.3475 84.222 38.3475 83.1982C38.3475 82.2705 38.2987 79.1977 38.2987 75.9292C28.5 77.733 25.965 73.5375 25.185 71.343C24.7463 70.221 22.845 66.7575 21.1875 65.8305C19.8225 65.0985 17.8725 63.294 21.1387 63.2452C24.21 63.1965 26.4038 66.0742 27.135 67.245C30.645 73.1475 36.2513 71.49 38.4938 70.4647C38.835 67.9282 39.8587 66.2197 40.98 65.2447C32.3025 64.2697 23.235 60.9037 23.235 45.9772C23.235 41.7322 24.7463 38.22 27.2325 35.4885C26.8425 34.5135 25.4775 30.513 27.6225 25.146C27.6225 25.146 30.8888 24.1222 38.3475 29.1465C41.4675 28.269 44.7825 27.8295 48.0975 27.8295C51.4125 27.8295 54.7275 28.269 57.8475 29.1465C65.3062 24.0735 68.5725 25.1467 68.5725 25.1467C70.7175 30.5122 69.3525 34.512 68.9625 35.4877C71.4487 38.2192 72.96 41.6827 72.96 45.9757C72.96 60.9517 63.8438 64.2682 55.1663 65.2447C56.58 66.4642 57.7988 68.8057 57.7988 72.4642C57.7988 77.6842 57.75 81.879 57.75 83.1967C57.75 84.2205 58.4812 85.4392 60.4312 85.0492C75.8362 79.8802 87 65.2462 87 48.0262C87 26.463 69.5475 9 48 9C26.4525 9 9 26.4637 9 48.0255Z" fill="url(#paint2_linear_102_42)"/>
<g filter="url(#filter2_i_102_42)">
<path d="M9 48.0255C9 65.2942 20.1638 79.8795 35.6663 85.0507C37.6163 85.3927 38.3475 84.222 38.3475 83.1982C38.3475 82.2705 38.2987 79.1977 38.2987 75.9292C28.5 77.733 25.965 73.5375 25.185 71.343C24.7463 70.221 22.845 66.7575 21.1875 65.8305C19.8225 65.0985 17.8725 63.294 21.1387 63.2452C24.21 63.1965 26.4038 66.0742 27.135 67.245C30.645 73.1475 36.2513 71.49 38.4938 70.4647C38.835 67.9282 39.8587 66.2197 40.98 65.2447C32.3025 64.2697 23.235 60.9037 23.235 45.9772C23.235 41.7322 24.7463 38.22 27.2325 35.4885C26.8425 34.5135 25.4775 30.513 27.6225 25.146C27.6225 25.146 30.8888 24.1222 38.3475 29.1465C41.4675 28.269 44.7825 27.8295 48.0975 27.8295C51.4125 27.8295 54.7275 28.269 57.8475 29.1465C65.3062 24.0735 68.5725 25.1467 68.5725 25.1467C70.7175 30.5122 69.3525 34.512 68.9625 35.4877C71.4487 38.2192 72.96 41.6827 72.96 45.9757C72.96 60.9517 63.8438 64.2682 55.1663 65.2447C56.58 66.4642 57.7988 68.8057 57.7988 72.4642C57.7988 77.6842 57.75 81.879 57.75 83.1967C57.75 84.2205 58.4812 85.4392 60.4312 85.0492C75.8362 79.8802 87 65.2462 87 48.0262C87 26.463 69.5475 9 48 9C26.4525 9 9 26.4637 9 48.0255Z" fill="url(#paint3_linear_102_42)"/>
</g>
<defs>
<filter id="filter0_d_102_42" x="2" y="4" width="92" height="92" filterUnits="userSpaceOnUse" color-interpolation-filters="sRGB">
<feFlood flood-opacity="0" result="BackgroundImageFix"/>
<feColorMatrix in="SourceAlpha" type="matrix" values="0 0 0 0 0 0 0 0 0 0 0 0 0 0 0 0 0 0 127 0" result="hardAlpha"/>
<feOffset dy="2"/>
<feGaussianBlur stdDeviation="2"/>
<feColorMatrix type="matrix" values="0 0 0 0 0 0 0 0 0 0 0 0 0 0 0 0 0 0 0.240942 0"/>
<feBlend mode="normal" in2="BackgroundImageFix" result="effect1_dropShadow_102_42"/>
<feBlend mode="normal" in="SourceGraphic" in2="effect1_dropShadow_102_42" result="shape"/>
</filter>
<filter id="filter1_d_102_42" x="5" y="6" width="86" height="84.1237" filterUnits="userSpaceOnUse" color-interpolation-filters="sRGB">
<feFlood flood-opacity="0" result="BackgroundImageFix"/>
<feColorMatrix in="SourceAlpha" type="matrix" values="0 0 0 0 0 0 0 0 0 0 0 0 0 0 0 0 0 0 127 0" result="hardAlpha"/>
<feOffset dy="1"/>
<feGaussianBlur stdDeviation="2"/>
<feColorMatrix type="matrix" values="0 0 0 0 1 0 0 0 0 1 0 0 0 0 1 0 0 0 0.529297 0"/>
<feBlend mode="normal" in2="BackgroundImageFix" result="effect1_dropShadow_102_42"/>
<feBlend mode="normal" in="SourceGraphic" in2="effect1_dropShadow_102_42" result="shape"/>
</filter>
<filter id="filter2_i_102_42" x="9" y="9" width="78" height="76.1237" filterUnits="userSpaceOnUse" color-interpolation-filters="sRGB">
<feFlood flood-opacity="0" result="BackgroundImageFix"/>
<feBlend mode="normal" in="SourceGraphic" in2="BackgroundImageFix" result="shape"/>
<feColorMatrix in="SourceAlpha" type="matrix" values="0 0 0 0 0 0 0 0 0 0 0 0 0 0 0 0 0 0 127 0" result="hardAlpha"/>
<feOffset/>
<feGaussianBlur stdDeviation="1"/>
<feComposite in2="hardAlpha" operator="arithmetic" k2="-1" k3="1"/>
<feColorMatrix type="matrix" values="0 0 0 0 0.258824 0 0 0 0 0.137255 0 0 0 0 0.431373 0 0 0 0.70355 0"/>
<feBlend mode="normal" in2="shape" result="effect1_innerShadow_102_42"/>
</filter>
<linearGradient id="paint0_linear_102_42" x1="48" y1="6" x2="48" y2="90" gradientUnits="userSpaceOnUse">
<stop stop-color="#FEFEFE"/>
<stop offset="1" stop-color="#E0E0E0"/>
</linearGradient>
<linearGradient id="paint1_linear_102_42" x1="48" y1="85.1237" x2="48" y2="9" gradientUnits="userSpaceOnUse">
<stop stop-color="#492779"/>
<stop offset="1" stop-color="#892793"/>
</linearGradient>
<linearGradient id="paint2_linear_102_42" x1="48" y1="85.1237" x2="48" y2="9" gradientUnits="userSpaceOnUse">
<stop stop-color="#492779"/>
<stop offset="1" stop-color="#892793"/>
</linearGradient>
<linearGradient id="paint3_linear_102_42" x1="48" y1="85.1237" x2="48" y2="9" gradientUnits="userSpaceOnUse">
<stop stop-color="#492779"/>
<stop offset="1" stop-color="#892793"/>
</linearGradient>
</defs>
</svg>
